<svg width="12" height="13" viewBox="0 0 12 13" fill="none" xmlns="http://www.w3.org/2000/svg">
<path d="M9.23339 11.5019C9.15446 11.5023 9.07744 11.4776 9.01331 11.4316L5.99902 9.24632L2.98472 11.4316C2.92032 11.4783 2.84274 11.5034 2.76318 11.5031C2.68363 11.5028 2.60623 11.4772 2.54217 11.43C2.47811 11.3828 2.43072 11.3165 2.40684 11.2406C2.38296 11.1648 2.38383 11.0832 2.40933 11.0079L3.58495 7.52577L0.538077 5.43632C0.47208 5.39111 0.422269 5.32598 0.395922 5.25045C0.369575 5.17492 0.368073 5.09294 0.391636 5.01649C0.415199 4.94004 0.462591 4.87313 0.526888 4.82554C0.591186 4.77794 0.669018 4.75215 0.749015 4.75194H4.50792L5.6423 1.26093C5.66673 1.18556 5.71442 1.11987 5.7785 1.07327C5.84259 1.02668 5.91978 1.00159 5.99902 1.00159C6.07825 1.00159 6.15544 1.02668 6.21953 1.07327C6.28362 1.11987 6.3313 1.18556 6.35573 1.26093L7.49011 4.75312H11.249C11.3291 4.75308 11.4071 4.77868 11.4716 4.82619C11.5361 4.87369 11.5837 4.9406 11.6074 5.0171C11.6311 5.09361 11.6297 5.1757 11.6034 5.25134C11.5771 5.32699 11.5272 5.39223 11.4611 5.43749L8.41308 7.52577L9.588 11.0069C9.60704 11.0633 9.61239 11.1234 9.60362 11.1822C9.59485 11.2411 9.57221 11.297 9.53757 11.3453C9.50292 11.3937 9.45727 11.4331 9.40438 11.4603C9.35149 11.4876 9.29288 11.5018 9.23339 11.5019Z" fill="#fff"/>
<defs>
<linearGradient id="paint0_linear_148_11900" x1="1.74902" y1="1.75195" x2="9.24902" y2="11.752" gradientUnits="userSpaceOnUse">
<stop stop-color="#F84119"/>
<stop offset="1" stop-color="#F89F19" stop-opacity="0.68"/>
</linearGradient>
</defs>
</svg>
